<svg width="24" height="24" viewBox="0 0 24 24" fill="none" xmlns="http://www.w3.org/2000/svg">
<path fill-rule="evenodd" clip-rule="evenodd" d="M12 0.750977C12.3315 0.750977 12.6495 0.882673 12.8839 1.11709C13.1183 1.35151 13.25 1.66946 13.25 2.00098V12.001C13.25 12.3325 13.1183 12.6504 12.8839 12.8849C12.6495 13.1193 12.3315 13.251 12 13.251H2C1.66848 13.251 1.35054 13.1193 1.11612 12.8849C0.881696 12.6504 0.75 12.3325 0.75 12.001C0.75 11.6695 0.881696 11.3515 1.11612 11.1171C1.35054 10.8827 1.66848 10.751 2 10.751H10.75V2.00098C10.75 1.66946 10.8817 1.35151 11.1161 1.11709C11.3505 0.882673 11.6685 0.750977 12 0.750977Z" />
<path fill-rule="evenodd" clip-rule="evenodd" d="M10.75 12.001C10.75 11.6695 10.8817 11.3515 11.1161 11.1171C11.3505 10.8827 11.6685 10.751 12 10.751H22C22.3315 10.751 22.6495 10.8827 22.8839 11.1171C23.1183 11.3515 23.25 11.6695 23.25 12.001C23.25 12.3325 23.1183 12.6504 22.8839 12.8849C22.6495 13.1193 22.3315 13.251 22 13.251H13.25V22.001C13.25 22.3325 13.1183 22.6504 12.8839 22.8849C12.6495 23.1193 12.3315 23.251 12 23.251C11.6685 23.251 11.3505 23.1193 11.1161 22.8849C10.8817 22.6504 10.75 22.3325 10.75 22.001V12.001Z" />
</svg>
